M48
; DRILL file {KiCad (6.0.0)} date Mon Jan  3 15:00:38 2022
; FORMAT={-:-/ absolute / inch / decimal}
; #@! TF.CreationDate,2022-01-03T15:00:38+01:00
; #@! TF.GenerationSoftware,Kicad,Pcbnew,(6.0.0)
; #@! TF.FileFunction,Plated,1,2,PTH
FMAT,2
INCH
; #@! TA.AperFunction,Plated,PTH,ComponentDrill
T1C0.0299
%
G90
G05
T1
X6.395Y-1.75
X6.395Y-1.85
X6.395Y-1.95
X6.395Y-2.05
X6.395Y-2.15
X6.395Y-2.25
X6.395Y-2.35
X6.395Y-2.45
X6.395Y-2.55
X6.395Y-2.65
X6.395Y-2.75
X6.395Y-2.85
X6.395Y-2.95
X6.395Y-3.05
X6.395Y-3.15
X6.395Y-3.25
X6.395Y-3.35
X6.395Y-3.45
X6.395Y-3.55
X6.395Y-3.65
X7.005Y-1.75
X7.005Y-1.85
X7.005Y-1.95
X7.005Y-2.05
X7.005Y-2.15
X7.005Y-2.25
X7.005Y-2.35
X7.005Y-2.45
X7.005Y-2.55
X7.005Y-2.65
X7.005Y-2.75
X7.005Y-2.85
X7.005Y-2.95
X7.005Y-3.05
X7.005Y-3.15
X7.005Y-3.25
X7.005Y-3.35
X7.005Y-3.45
X7.005Y-3.55
X7.005Y-3.65
X7.395Y-1.75
X7.395Y-1.85
X7.395Y-1.95
X7.395Y-2.05
X7.395Y-2.15
X7.395Y-2.25
X7.395Y-2.35
X7.395Y-2.45
X7.395Y-2.55
X7.395Y-2.65
X7.395Y-2.75
X7.395Y-2.85
X7.395Y-2.95
X7.395Y-3.05
X7.395Y-3.15
X7.395Y-3.25
X7.395Y-3.35
X7.395Y-3.45
X7.395Y-3.55
X7.395Y-3.65
X8.005Y-1.75
X8.005Y-1.85
X8.005Y-1.95
X8.005Y-2.05
X8.005Y-2.15
X8.005Y-2.25
X8.005Y-2.35
X8.005Y-2.45
X8.005Y-2.55
X8.005Y-2.65
X8.005Y-2.75
X8.005Y-2.85
X8.005Y-2.95
X8.005Y-3.05
X8.005Y-3.15
X8.005Y-3.25
X8.005Y-3.35
X8.005Y-3.45
X8.005Y-3.55
X8.005Y-3.65
T0
M30
